<svg width="672" height="101" viewBox="0 0 672 101" fill="none" xmlns="http://www.w3.org/2000/svg">
<path fill-rule="evenodd" clip-rule="evenodd" d="M671 51.6056C671 54.6492 668.965 57.8276 664.578 61.0822C660.216 64.318 653.72 67.4815 645.258 70.5187C628.345 76.5889 603.816 82.0729 573.438 86.6845C532.124 92.9562 480.075 97.6025 421.822 99.9331V100.934C565.816 95.1759 672 75.2732 672 51.6056C672 23.4351 521.568 0.598389 336 0.598389C150.432 0.598389 0 23.4351 0 51.6056C0 75.3176 106.583 95.2505 250.988 100.966V99.9653C192.408 97.6455 140.067 92.9852 98.5622 86.6845C68.1841 82.0729 43.655 76.5889 26.7424 70.5187C18.28 67.4815 11.7839 64.318 7.42214 61.0822C3.035 57.8276 1 54.6492 1 51.6056C1 48.562 3.035 45.3837 7.42214 42.129C11.7839 38.8932 18.28 35.7298 26.7424 32.6925C43.655 26.6223 68.1841 21.1383 98.5622 16.5267C159.303 7.30586 243.25 1.59839 336 1.59839C428.75 1.59839 512.697 7.30586 573.438 16.5267C603.816 21.1383 628.345 26.6223 645.258 32.6925C653.72 35.7298 660.216 38.8932 664.578 42.129C668.965 45.3837 671 48.562 671 51.6056Z" fill="white"/>
</svg>
